<svg xmlns="http://www.w3.org/2000/svg" viewBox="0 0 64 64">
  <defs>
    <linearGradient id="g" x1="0" y1="0" x2="1" y2="1">
      <stop offset="0%" stop-color="#FF6B8A"/>
      <stop offset="100%" stop-color="#E91E63"/>
    </linearGradient>
  </defs>
  <rect width="64" height="64" rx="12" ry="12" fill="#FFF5F7"/>
  <path fill="url(#g)" d="M32 51c-.7 0-1.4-.2-2-.7C23.2 46.4 14 39.1 10.3 31.6 7.2 25.3 9.9 17.9 16.2 15.1c3.9-1.7 8.5-.9 11.7 2.1l4.1 3.8 4.1-3.8c3.2-3 7.8-3.8 11.7-2.1 6.3 2.8 9 10.2 5.9 16.5C50 39.1 40.8 46.4 34 50.3c-.6.5-1.3.7-2 .7Z"/>
</svg>

